<svg width="231" height="208" xmlns="http://www.w3.org/2000/svg"><g transform="translate(2 3)" fill="none" fill-rule="evenodd"><path d="M227.96 40.828l-17.302-29.961c-2.046-3.54-6.67-4.445-10.772-2.067l-16.436 9.483a9.369 9.369 0 0 0-4.063 4.323 6.458 6.458 0 0 0-.467 3.616c-.38.129-.752.283-1.112.461A82.838 82.838 0 0 0 114.118.685a82.831 82.831 0 0 0-61.37 31.076 7.623 7.623 0 0 0-1.056-.422c.667-3.106-.967-6.467-4.347-8.417L30.91 13.44c-4.163-2.4-8.62-1.667-10.605 1.772L3.001 45.167a6.703 6.703 0 0 0-.428 5.866 9.107 9.107 0 0 0 4.025 4.49L23.039 65a9.83 9.83 0 0 0 4.875 1.4c1.72.038 3.387-.6 4.64-1.778.417.358.865.676 1.34.95a8.19 8.19 0 0 0 2.401.94 82.9 82.9 0 0 0-1.756 17.01c0 40.895 29.776 74.961 68.789 81.695-1.968.694-3.285 2.833-3.285 5.583-.002.575.06 1.15.183 1.711-3.023.972-5.119 4.072-5.119 7.967v15.889c0 4.805 2.874 8.294 6.837 8.294h34.611c4.091 0 7.176-3.567 7.176-8.294v-15.89c0-4.06-2.057-7.171-5.086-8.038.105-.55.157-1.108.156-1.667 0-3.128-1.495-5.389-3.708-5.766v-.495c37.313-8.094 65.343-41.344 65.343-81.022a82.668 82.668 0 0 0-3.057-22.317c.463-.283.897-.61 1.295-.978.926.72 2.02 1.19 3.18 1.367.393.06.79.09 1.189.089a9.508 9.508 0 0 0 4.713-1.328l16.436-9.483a9.369 9.369 0 0 0 4.063-4.322 6.286 6.286 0 0 0-.294-5.69z" fill="#000" fill-rule="nonzero" opacity=".1"/><ellipse stroke="#2F2E3D" stroke-width="4.447" fill="#DF2D25" fill-rule="nonzero" cx="113.177" cy="80.461" rx="80.483" ry="80.444"/><path d="M113.35 161.667a80.316 80.316 0 0 0 61.346-28.384c-31.945 27.141-79.385 25.222-109.03-4.41C36.02 99.24 34.101 51.822 61.257 19.893c-25.732 21.833-35.101 57.393-23.465 89.06 11.636 31.669 41.804 52.716 75.556 52.713z" fill="#000" fill-rule="nonzero" opacity=".1"/><ellipse stroke="#2F2E3D" stroke-width="4.447" cx="113.177" cy="80.461" rx="80.483" ry="80.444"/><path d="M98.881 133.244v-27.933a3.89 3.89 0 0 1 3.891-3.889 3.89 3.89 0 0 1 3.89 3.89V124.2 97.733a3.89 3.89 0 0 1 3.892-3.889 3.89 3.89 0 0 1 3.89 3.89V124.2 103a3.89 3.89 0 0 1 3.891-3.889 3.89 3.89 0 0 1 3.891 3.889v21.206-15.612a3.89 3.89 0 0 1 3.89-3.888 3.89 3.89 0 0 1 3.892 3.888v28.028c-.005.2-.021.398-.05.595v8.939a.483.483 0 0 1-.034.188l-1.667 8.578v7.106h-26.458v-7.134l-3.034-2.822a.356.356 0 0 1-.15-.105l-6.56-6.606a.555.555 0 0 1-.183-.417v-17.377a3.506 3.506 0 0 1 3.508-3.506 3.506 3.506 0 0 1 3.507 3.506l-.006 5.677z" stroke="#2F2E3D" stroke-width="4.447" fill="#FFD300" fill-rule="nonzero" stroke-linejoin="round"/><g opacity=".1" fill="#1E0F00" fill-rule="nonzero"><path d="M124.066 124.55V103a3.892 3.892 0 0 0-6.37-3 3.888 3.888 0 0 1 1.434 3.017v22.389M116.117 124.833v-27.1a3.892 3.892 0 0 0-6.37-3.017 3.888 3.888 0 0 1 1.435 3.017v27.656M107.97 125.111v-20.4a3.892 3.892 0 0 0-6.37-3.044 3.888 3.888 0 0 1 1.433 3.016v20.984M99.82 133.744v-6.638a3.139 3.139 0 0 0-5.124-2.428 3.122 3.122 0 0 1 1.156 2.428v7.083"/><path d="M123.393 162.017h4.936v-7.1l1.667-8.578a.483.483 0 0 0 .034-.189v-8.928c.029-.197.046-.395.05-.594v-28.04a3.892 3.892 0 0 0-6.37-3.033 3.888 3.888 0 0 1 1.428 3.023v28.028c-.004.199-.02.397-.05.594v8.939s.095 8.861-21.755 8.861c0 3.578.312 6.111 0 6.111-.31 0 24.98.917 24.98.917"/></g><path d="M98.881 133.244v-27.933a3.89 3.89 0 0 1 3.891-3.889 3.89 3.89 0 0 1 3.89 3.89V124.2 97.733a3.89 3.89 0 0 1 3.892-3.889 3.89 3.89 0 0 1 3.89 3.89V124.2 103a3.89 3.89 0 0 1 3.891-3.889 3.89 3.89 0 0 1 3.891 3.889v21.206-15.612a3.89 3.89 0 0 1 3.89-3.888 3.89 3.89 0 0 1 3.892 3.888v28.028c-.005.2-.021.398-.05.595v8.939a.483.483 0 0 1-.034.188l-1.667 8.578v7.106h-26.458v-7.134l-3.034-2.822a.356.356 0 0 1-.15-.105l-6.56-6.606a.555.555 0 0 1-.183-.417v-17.377a3.506 3.506 0 0 1 3.508-3.506 3.506 3.506 0 0 1 3.507 3.506l-.006 5.677z" stroke="#2F2E3D" stroke-width="4.447" stroke-linejoin="round"/><path d="M130.113 171.6h-29.67c-3.646 0-3.646-7.706 0-7.706h29.67c3.202-.005 3.202 7.706 0 7.706z" fill="#1CBFD7" fill-rule="nonzero"/><path d="M130.113 171.6h-29.67c-3.646 0-3.646-3.467 0-3.467h29.67c3.202 0 3.202 3.467 0 3.467z" opacity=".07" fill="#000" fill-rule="nonzero"/><path d="M130.119 173.572h-29.676c-2.729 0-4.708-2.45-4.708-5.828 0-3.377 1.98-5.827 4.708-5.827h29.676c2.573 0 4.374 2.394 4.374 5.827 0 3.434-1.8 5.828-4.374 5.828zm-29.67-7.71c-.39 0-.762.91-.762 1.877s.367 1.878.762 1.878h29.614a3.943 3.943 0 0 0 0-3.761l-29.614.005z" fill="#2F2E3D" fill-rule="nonzero"/><path d="M132.587 171.6H97.975c-2.729 0-4.708 2.45-4.708 5.828v18.966c0 3.434 1.796 5.828 4.375 5.828h34.611c2.73 0 4.708-2.45 4.708-5.828v-18.966c-.006-3.434-1.801-5.828-4.374-5.828z" stroke="#2F2E3D" stroke-width="4.447" fill="#DF2D25" fill-rule="nonzero"/><path d="M93.267 194.472c10.995 0 36.174 1.728 36.174-11.722v-2.344c0-3.084-6.376-5.284-35.834-5.284 0-.8 3.334-3.4 3.334-3.4h36.685l2.885 2.845v24.522l-4.263 3.133h-35.74l-3.24-3.8v-3.95z" fill="#000" fill-rule="nonzero" opacity=".1"/><path d="M132.587 171.6H97.975c-2.729 0-4.708 2.45-4.708 5.828v18.966c0 3.434 1.796 5.828 4.375 5.828h34.611c2.73 0 4.708-2.45 4.708-5.828v-18.966c-.006-3.434-1.801-5.828-4.374-5.828z" stroke="#2F2E3D" stroke-width="4.447"/><path d="M161.128 72.389l-7.415 4.278-16.791 9.689a3.896 3.896 0 0 1-5.84-3.375c0-1.39.744-2.675 1.95-3.37l16.368-9.444L126.467 83.4a3.9 3.9 0 0 1-5.325-1.433 3.896 3.896 0 0 1 1.434-5.323l22.933-13.233-18.37 10.6a3.901 3.901 0 0 1-5.844-3.383 3.897 3.897 0 0 1 1.954-3.372l18.347-10.59-13.528 7.778a3.9 3.9 0 0 1-5.325-1.433 3.896 3.896 0 0 1 1.434-5.322l24.284-14.017c.18-.097.365-.182.556-.255l7.742-4.445a.484.484 0 0 1 .178-.06l8.276-2.834 6.153-3.55 13.257 22.955-6.203 3.556-.928 4.039a.355.355 0 0 1 0 .183l-2.452 8.961a.556.556 0 0 1-.266.372l-3.68 2.123-1.623.933-9.86 5.689.105-.061a3.508 3.508 0 0 1-4.652-1.342 3.505 3.505 0 0 1 1.123-4.708l4.941-2.84z" stroke="#2F2E3D" stroke-width="4.447" fill="#FFD300" fill-rule="nonzero" stroke-linejoin="round"/><g opacity=".1" fill="#1E0F00" fill-rule="nonzero"><path d="M141.002 54.939l-18.67 10.772a3.888 3.888 0 0 0 .555 7.022 3.889 3.889 0 0 1 1.896-2.75L144.18 58.79M145.22 61.667l-23.494 13.56a3.888 3.888 0 0 0 .556 7.023 3.889 3.889 0 0 1 1.895-2.75l23.962-13.828M149.517 68.589l-17.68 10.2a3.888 3.888 0 0 0 .555 7.022 3.889 3.889 0 0 1 1.895-2.75l18.16-10.478M161.09 71.328l-5.754 3.333a3.138 3.138 0 0 0 .462 5.65 3.122 3.122 0 0 1 1.523-2.222l6.114-3.539"/><path d="M173.807 36.8l-2.468-4.272-6.153 3.55-8.277 2.81a.484.484 0 0 0-.177.062l-7.743 4.444c-.19.074-.376.159-.556.256L124.15 57.667a3.888 3.888 0 0 0 .556 7.022 3.889 3.889 0 0 1 1.906-2.778l24.284-14.017c.18-.097.366-.182.556-.255l7.743-4.445s7.62-4.5 18.542 14.412c3.102-1.79 5.136-3.334 5.292-3.056.155.278-11.673-22.083-11.673-22.083"/></g><path d="M161.128 72.389l-7.415 4.278-16.791 9.689a3.896 3.896 0 0 1-5.84-3.375c0-1.39.744-2.675 1.95-3.37l16.368-9.444L126.467 83.4a3.9 3.9 0 0 1-5.325-1.433 3.896 3.896 0 0 1 1.434-5.323l22.933-13.233-18.37 10.6a3.901 3.901 0 0 1-5.844-3.383 3.897 3.897 0 0 1 1.954-3.372l18.347-10.59-13.528 7.778a3.9 3.9 0 0 1-5.325-1.433 3.896 3.896 0 0 1 1.434-5.322l24.284-14.017c.18-.097.365-.182.556-.255l7.742-4.445a.484.484 0 0 1 .178-.06l8.276-2.834 6.153-3.55 13.257 22.955-6.203 3.556-.928 4.039a.355.355 0 0 1 0 .183l-2.452 8.961a.556.556 0 0 1-.266.372l-3.68 2.123-1.623.933-9.86 5.689.105-.061a3.508 3.508 0 0 1-4.652-1.342 3.505 3.505 0 0 1 1.123-4.708l4.941-2.84z" stroke="#2F2E3D" stroke-width="4.447" stroke-linejoin="round"/><path d="M178.742 26.178l14.835 25.683c1.823 3.156-4.858 7.011-6.67 3.856l-14.835-25.684c-1.606-2.766 5.07-6.622 6.67-3.855z" stroke="#2F2E3D" stroke-width="4.447" fill="#DF2D25" fill-rule="nonzero"/><path d="M178.742 26.178l14.835 25.683c1.823 3.156-1.178 4.889-3.001 1.733L175.74 27.911c-1.601-2.767 1.4-4.5 3.001-1.733z" opacity=".07" fill="#000" fill-rule="nonzero"/><path d="M180.449 25.189l14.835 25.683c1.361 2.361.233 5.3-2.696 6.99-2.93 1.688-6.042 1.2-7.404-1.162L170.35 31.017c-1.29-2.223-.11-5 2.863-6.7 2.973-1.7 5.953-1.356 7.237.872zm-3.419 1.972l1.712-.989-1.712.99zm11.578 27.567c.195.339 1.173.2 2.007-.284.833-.483 1.445-1.26 1.25-1.6l-14.807-25.622a3.947 3.947 0 0 0-3.257 1.878l14.807 25.628z" fill="#2F2E3D" fill-rule="nonzero"/><path d="M177.508 24.039l17.303 29.955c1.362 2.362 4.48 2.85 7.404 1.162l16.436-9.484c2.973-1.716 4.152-4.444 2.862-6.7L204.21 9.022c-1.362-2.36-4.48-2.85-7.403-1.16l-16.436 9.482c-2.974 1.712-4.174 4.467-2.863 6.695z" fill="#1CBFD7" fill-rule="nonzero"/><path d="M216.983 46.639c-5.497-9.517-16.591-32.178-28.241-25.456l-2.03 1.173c-2.673 1.544-1.389 8.16 13.34 33.655-.694.4-4.602-1.172-4.602-1.172l-18.342-31.733 1.023-3.923 21.25-12.26 4.818 2.088 17.87 30.933-1.668 4.706-3.418 1.989z" fill="#000" fill-rule="nonzero" opacity=".1"/><path d="M177.508 24.039l17.303 29.955c1.362 2.362 4.48 2.85 7.404 1.162l16.436-9.484c2.973-1.716 4.152-4.444 2.862-6.7L204.21 9.022c-1.362-2.36-4.48-2.85-7.403-1.16l-16.436 9.482c-2.974 1.712-4.174 4.467-2.863 6.695z" stroke="#2F2E3D" stroke-width="4.447"/><path d="M77.26 48.939l7.414 4.278 16.792 9.689a3.892 3.892 0 1 1-3.89 6.744l-16.37-9.444 22.933 13.233a3.897 3.897 0 1 1-3.89 6.755L77.315 66.956l18.37 10.6a3.897 3.897 0 1 1-3.89 6.755l-18.37-10.6 13.528 7.806a3.897 3.897 0 1 1-3.89 6.755L58.779 74.256a4.713 4.713 0 0 1-.49-.34l-7.742-4.444a.484.484 0 0 1-.145-.122l-6.592-5.744-6.153-3.55L50.914 37.1l6.175 3.561 3.963-1.217a.356.356 0 0 1 .167-.077l8.998-2.378a.556.556 0 0 1 .456.05l3.68 2.122 1.623.933 9.86 5.69-.106-.062a3.505 3.505 0 0 1 1.284 4.79 3.508 3.508 0 0 1-4.79 1.282L77.26 48.94z" stroke="#2F2E3D" stroke-width="4.447" fill="#FFD300" fill-rule="nonzero" stroke-linejoin="round"/><g opacity=".1" fill="#1E0F00" fill-rule="nonzero"><path d="M72.218 75.083l18.67 10.773a3.892 3.892 0 0 0 5.826-4 3.892 3.892 0 0 1-3.335-.267L73.98 70.394M75.948 68.061l23.484 13.55a3.892 3.892 0 0 0 5.797-4.005 3.892 3.892 0 0 1-3.335-.267L77.932 63.51M79.778 60.872l17.68 10.2a3.892 3.892 0 0 0 5.798-4.005 3.892 3.892 0 0 1-3.335-.267L81.76 56.322M76.376 49.5l5.753 3.333a3.142 3.142 0 0 0 4.663-3.222 3.125 3.125 0 0 1-2.679-.217l-6.114-3.538"/><path d="M40.097 55.756l-2.468 4.272 6.153 3.55 6.592 5.744c.04.05.09.092.145.122l7.743 4.445c.155.123.319.236.489.339l24.284 14.016a3.892 3.892 0 0 0 5.803-4 3.892 3.892 0 0 1-3.335-.272L61.224 70a4.713 4.713 0 0 1-.489-.339l-7.743-4.444s-7.709-4.35 3.213-23.256c-3.101-1.789-5.447-2.778-5.291-3.055.155-.278-13.285 21.166-13.285 21.166"/></g><path d="M77.26 48.939l7.414 4.278 16.792 9.689a3.892 3.892 0 1 1-3.89 6.744l-16.37-9.444 22.933 13.233a3.897 3.897 0 1 1-3.89 6.755L77.315 66.956l18.37 10.6a3.897 3.897 0 1 1-3.89 6.755l-18.37-10.6 13.528 7.806a3.897 3.897 0 1 1-3.89 6.755L58.779 74.256a4.713 4.713 0 0 1-.49-.34l-7.742-4.444a.484.484 0 0 1-.145-.122l-6.592-5.744-6.153-3.55L50.914 37.1l6.175 3.561 3.963-1.217a.356.356 0 0 1 .167-.077l8.998-2.378a.556.556 0 0 1 .456.05l3.68 2.122 1.623.933 9.86 5.69-.106-.062a3.505 3.505 0 0 1 1.284 4.79 3.508 3.508 0 0 1-4.79 1.282L77.26 48.94z" stroke="#2F2E3D" stroke-width="4.447" stroke-linejoin="round"/><path d="M28.43 56.8l14.835-25.689c1.824-3.155 8.499.7 6.67 3.856L35.1 60.65c-1.59 2.767-8.27-1.083-6.67-3.85z" fill="#1CBFD7" fill-rule="nonzero"/><path d="M28.43 56.8l14.835-25.689c1.824-3.155 4.825-1.422 3.002 1.733L31.432 58.528c-1.6 2.772-4.602 1.039-3.002-1.728z" opacity=".07" fill="#000" fill-rule="nonzero"/><path d="M26.719 55.811l14.834-25.683c1.362-2.361 4.48-2.85 7.404-1.161 2.924 1.689 4.058 4.627 2.696 6.989l-14.835 25.71c-1.29 2.223-4.263 2.584-7.226.873-2.962-1.711-4.163-4.5-2.873-6.728zm3.418 1.972l-1.712-.989 1.712.99zm18.092-23.805c.194-.34-.411-1.111-1.25-1.6-.84-.49-1.813-.622-2.007-.284l-14.807 25.64a3.947 3.947 0 0 0 3.257 1.877l14.807-25.633z" fill="#2F2E3D" fill-rule="nonzero"/><path d="M27.197 58.933l17.302-29.955c1.362-2.361.234-5.3-2.695-6.99L25.368 12.5c-2.974-1.717-5.947-1.356-7.226.872L.828 43.333c-1.362 2.361-.233 5.3 2.696 6.99l16.436 9.483c2.973 1.716 5.947 1.355 7.237-.873z" stroke="#2F2E3D" stroke-width="4.447" fill="#3C3" fill-rule="nonzero"/><path d="M27.035 13.461c-5.497 9.517-19.581 30.45-7.931 37.172l2.028 1.173c2.674 1.544 7.782-2.878 22.495-28.378.695.4 1.29 4.572 1.29 4.572L26.573 59.733l-3.89 1.078L1.433 48.55l-.606-5.217L18.698 12.4l4.913-.906 3.424 1.967z" fill="#000" fill-rule="nonzero" opacity=".1"/><path d="M27.197 58.933l17.302-29.955c1.362-2.361.234-5.3-2.695-6.99L25.368 12.5c-2.974-1.717-5.947-1.356-7.226.872L.828 43.333c-1.362 2.361-.233 5.3 2.696 6.99l16.436 9.483c2.973 1.716 5.947 1.355 7.237-.873z" stroke="#2F2E3D" stroke-width="4.447"/></g></svg>