<svg width="158" height="231" xmlns="http://www.w3.org/2000/svg"><g transform="translate(3 3)" fill="none" fill-rule="evenodd"><g opacity=".1" fill="#000" fill-rule="nonzero"><path d="M56.777 116.355c-.765 0-1.525 0-2.278.05l-.753.043c-.498 0-.996.056-1.494.1l-.897.087-1.313.143-.952.125-1.245.187-.984.168-1.152.23-1.002.212c-.355.081-.697.169-1.046.256a52.91 52.91 0 0 0-2.284.623l-.623.187c-.435.137-.871.286-1.3.43l-.667.224c-.435.155-.871.317-1.3.486l-.623.236c-.444.179-.886.364-1.326.555l-.492.218c-.467.205-.927.417-1.388.623l-.268.137a48.421 48.421 0 0 0-6.274 3.681c-10.8 7.476-17.723 19.007-17.723 31.92 0 22.607 21.202 40.934 47.353 40.934a53.778 53.778 0 0 0 17.212-2.803 50.68 50.68 0 0 0 6.337-2.622h.044a48.446 48.446 0 0 0 5.677-3.32l.155-.107c.415-.29.83-.585 1.245-.884l.131-.1a45.948 45.948 0 0 0 3.492-2.865l.299-.268c.315-.295.627-.592.934-.891l.373-.374c.299-.299.623-.623.884-.91l.137-.149a38.623 38.623 0 0 0 1.631-1.869l.442-.536c.218-.274.43-.548.622-.828l.486-.654c.193-.268.386-.536.573-.804.186-.268.367-.548.547-.822.181-.274.467-.723.691-1.096.225-.374.418-.686.623-1.035.137-.236.261-.48.392-.716.13-.237.33-.623.486-.934.155-.312.236-.474.348-.71.175-.368.343-.736.504-1.103.081-.187.169-.374.25-.56a23.7 23.7 0 0 0 .622-1.64c.068-.186.13-.373.193-.56.137-.399.274-.803.398-1.208.067-.212.131-.42.193-.623.119-.418.23-.841.336-1.246.044-.18.094-.362.137-.542.137-.623.262-1.196.374-1.8 0-.119.037-.237.056-.356.083-.498.158-1 .224-1.507 0-.2.044-.399.068-.623.05-.449.09-.901.119-1.358 0-.193 0-.38.037-.573.031-.623.056-1.246.056-1.906a36.983 36.983 0 0 0-8.092-22.888 29.41 29.41 0 0 0-1.32-1.607 43.266 43.266 0 0 0-2.895-3.034 45.449 45.449 0 0 0-4.93-4.061 49.784 49.784 0 0 0-3.647-2.355 49.988 49.988 0 0 0-8.043-3.775 53.654 53.654 0 0 0-18.432-3.215l.062-.018z"/><path d="M141.436 54.483h-31.747c.724.014 1.447.085 2.16.212-17.237 1.302-13.794 8.18-38.47 8.18h-4.893a3.456 3.456 0 0 0 3.287-3.44v-4.279a3.462 3.462 0 0 0-3.449-3.451h-6.43v-15h2.453a3.462 3.462 0 0 0 3.448-3.452v-3.55h45.243a9.522 9.522 0 0 0 10.993 5.107 9.534 9.534 0 0 0 3.499-1.713 8.91 8.91 0 0 0 .522-.442l.119-.106c.15-.143.298-.286.442-.436l.149-.162c.13-.15.261-.293.386-.448l.15-.2c.351-.467.66-.965.92-1.489.07-.137.144-.28.206-.423.062-.143.1-.237.143-.361.044-.125.119-.312.168-.468a8.544 8.544 0 0 0 .243-.872l.075-.342a9.28 9.28 0 0 0 .087-.592c0-.1 0-.2.037-.3 0-.298.044-.622.044-.903a9.56 9.56 0 0 0-2.191-6.098 8.74 8.74 0 0 0-.623-.68 9.638 9.638 0 0 0-2.21-1.65 9.531 9.531 0 0 0-4.569-1.159c-.305 0-.622 0-.909.044l-.298.037c-.2 0-.399.056-.592.087l-.342.075-.517.131-.355.112-.466.168-.361.144-.424.205c-.52.26-1.016.566-1.481.916l-.206.156c-.155.124-.298.249-.448.38l-.168.15c-.15.142-.299.286-.436.441l-.112.119a8.914 8.914 0 0 0-.442.523 9.582 9.582 0 0 0-1.002 1.589H67.77v-3.44a3.44 3.44 0 0 0-.99-2.404v-.691l-1.07-.05a3.41 3.41 0 0 0-1.394-.299h-2.453V8.503a1.563 1.563 0 0 0-1.556-1.557h-8.223a1.563 1.563 0 0 0-1.556 1.557v5.825h-1.65a3.462 3.462 0 0 0-3.449 3.451v3.439H24.09a9.607 9.607 0 0 0-1.17-1.813 8.74 8.74 0 0 0-.622-.68 9.638 9.638 0 0 0-2.21-1.65 9.531 9.531 0 0 0-4.57-1.159c-.304 0-.622 0-.908.044l-.299.037c-.2 0-.398.056-.591.088l-.343.074-.516.131-.355.112-.467.168-.361.144-.423.205c-.521.26-1.017.566-1.482.916l-.205.156c-.156.124-.3.249-.449.38l-.168.15a7.3 7.3 0 0 0-.435.442l-.112.118a8.914 8.914 0 0 0-.442.523 9.546 9.546 0 0 0-1.712 3.501 9.56 9.56 0 0 0 2.486 9.173 9.544 9.544 0 0 0 9.167 2.489 9.534 9.534 0 0 0 3.498-1.713 8.91 8.91 0 0 0 .523-.443l.118-.105c.15-.144.3-.287.442-.436l.15-.162c.13-.15.261-.293.386-.449l.15-.2c.351-.466.66-.965.92-1.488l.044-.087H45.46v5.413l.592.056a3.454 3.454 0 0 0 2.863 1.533h1.65v15.019h-5.603a3.462 3.462 0 0 0-3.448 3.451v4.28a3.456 3.456 0 0 0 3.287 3.438h-4.29a3.27 3.27 0 0 0-3.261 3.265v16.963a3.27 3.27 0 0 0 3.262 3.258H50.59v11.369l-6.922 10.104H39.49a4.272 4.272 0 0 0-4.258 4.26 4.232 4.232 0 0 0 .728 2.38 4.31 4.31 0 0 0 1.152 1.153c.702.476 1.53.73 2.378.729h34.324a4.26 4.26 0 0 0 4.258-4.261 4.26 4.26 0 0 0-4.258-4.261h-4.98l-6.922-10.104v-11.37h44.147c2.398 0 4.698.955 6.393 2.652a9.049 9.049 0 0 1 2.645 6.4v102.507c0 4.983-4.046 11.836-9.038 11.836H78.334V198.31h-43.12v10.802c.027 10.065 8.145 18.233 18.202 18.315h86.837a14.396 14.396 0 0 0 5.64-1.14 14.5 14.5 0 0 0 1.245-.623 14.548 14.548 0 0 0 4.27-3.52 14.447 14.447 0 0 0 3.312-9.22V67.778c-.014-7.336-5.953-13.28-13.284-13.294z"/></g><path d="M64.845 103.16l-8.447-12.334V1.576A1.563 1.563 0 0 0 54.84.02h-8.223a1.563 1.563 0 0 0-1.556 1.557v89.25l-8.447 12.335h28.23z" stroke="#2F2E3D" stroke-width="4.984" fill="#1CBFD7" fill-rule="nonzero"/><path d="M55.707 90.826V1.576A1.563 1.563 0 0 0 54.15.02h-3.448c.859 0-.51.704-.51 1.557l.69 89.25s.461 12.335-8.51 12.335H64.16l-8.453-12.335z" fill="#050505" fill-rule="nonzero" opacity=".1"/><rect stroke="#2F2E3D" stroke-width="4.984" fill="#1CBFD7" fill-rule="nonzero" x="10.01" y="14.328" width="106.153" height="8.466" rx="2.934"/><path d="M64.845 103.16l-8.447-12.334V1.576A1.563 1.563 0 0 0 54.84.02h-8.223a1.563 1.563 0 0 0-1.556 1.557v89.25l-8.447 12.335h28.23z" stroke="#2F2E3D" stroke-width="4.984"/><path d="M149.23 60.9v149.277c-.004 8.007-6.491 14.496-14.492 14.496H48c-10.097-.03-18.274-8.216-18.301-18.32v-6.292h70.846c4.983-.01 9.017-4.058 9.013-9.046V88.51a9.049 9.049 0 0 0-2.645-6.4 9.035 9.035 0 0 0-6.393-2.652H34.978a3.27 3.27 0 0 1-3.262-3.258V59.23a3.27 3.27 0 0 1 3.262-3.264H67.85c26.114 0 20.723-7.7 41.707-8.348v-.043h26.338a13.304 13.304 0 0 1 9.429 3.894 13.324 13.324 0 0 1 3.905 9.43z" stroke="#2F2E3D" stroke-width="4.984" fill="#DF2D25" fill-rule="nonzero" stroke-linejoin="round"/><path d="M135.92 47.581h-31.746c7.351 0 31.242 10.248 31.242 17.605v136.027c0 14.266-79.678 23.473-87.683 23.473h86.993c8 0 14.488-6.49 14.491-14.496V60.9c0-7.351-5.95-13.312-13.296-13.319z" fill="#000" fill-rule="nonzero" opacity=".1"/><path d="M45.815 35.16l10.626 6.385M45.815 44.803l10.626 6.385M45.815 82.18l10.626 6.379" stroke="#2F2E3D" stroke-width="4.984" stroke-linecap="round" stroke-linejoin="round"/><rect stroke="#2F2E3D" stroke-width="4.984" fill="#DF2D25" fill-rule="nonzero" stroke-linejoin="round" x="35.98" y="44.803" width="30.297" height="11.182" rx="3.115"/><path stroke="#2F2E3D" stroke-width="4.984" fill="#1CBFD7" fill-rule="nonzero" d="M29.699 191.408h43.12v8.653h-43.12z"/><path fill="#000" fill-rule="nonzero" opacity=".1" d="M29.699 195.731h43.12v4.323h-43.12z"/><ellipse stroke="#2F2E3D" stroke-width="4.984" fill="#DF2D25" fill-rule="nonzero" stroke-linejoin="round" cx="51.262" cy="150.387" rx="47.353" ry="40.934"/><path d="M51.262 109.452a51.92 51.92 0 0 0-29.63 9.015 53.778 53.778 0 0 1 17.211-2.804c26.145 0 47.353 18.327 47.353 40.934 0 12.908-6.922 24.414-17.722 31.92 17.635-5.955 30.14-20.775 30.14-38.13-.005-22.607-21.201-40.935-47.352-40.935z" fill="#000" fill-rule="nonzero" opacity=".1"/><ellipse stroke="#2F2E3D" stroke-width="4.984" fill="#FFD300" fill-rule="nonzero" cx="51.262" cy="150.387" rx="36.714" ry="31.733"/><path d="M51.262 118.647c-10.9 0-20.685 4.112-27.39 10.634 4.756-1.944 18.283-4.722 23.898-4.722 20.274 0 31.747 14.234 31.747 31.77 0 8.099-6.754 17.157-12.537 22.763 12.45-5.083 21.028-16.022 21.028-28.7-.038-17.535-16.471-31.745-36.746-31.745z" fill="#000" fill-rule="nonzero" opacity=".1"/><path stroke="#2F2E3D" stroke-width="4.984" stroke-linecap="round" stroke-linejoin="round" d="M65.144 130.583l-13.882 19.804h20.324"/><ellipse stroke="#2F2E3D" stroke-width="4.984" fill="#DF2D25" fill-rule="nonzero" stroke-linejoin="round" cx="51.262" cy="150.387" rx="5.192" ry="4.491"/><path d="M51.262 166.029v6.354M66.93 158.205l6.368 3.183M66.93 142.569l6.368-3.184M51.262 134.744v-6.354M35.594 142.569l-6.374-3.184M35.594 158.205l-6.374 3.183" stroke="#2F2E3D" stroke-width="4.984" fill="#1CBFD7" fill-rule="nonzero" stroke-linecap="round"/><ellipse stroke="#2F2E3D" stroke-width="4.984" cx="51.262" cy="150.387" rx="36.714" ry="31.733"/><ellipse stroke="#2F2E3D" stroke-width="4.984" stroke-linejoin="round" cx="51.262" cy="150.387" rx="47.353" ry="40.934"/><path d="M149.23 60.9v149.277c-.004 8.007-6.491 14.496-14.492 14.496H48c-10.097-.03-18.274-8.216-18.301-18.32v-6.292h70.846c4.983-.01 9.017-4.058 9.013-9.046V88.51a9.049 9.049 0 0 0-2.645-6.4 9.035 9.035 0 0 0-6.393-2.652H34.978a3.27 3.27 0 0 1-3.262-3.258V59.23a3.27 3.27 0 0 1 3.262-3.264H67.85c26.114 0 20.723-7.7 41.707-8.348v-.043h26.338a13.304 13.304 0 0 1 9.429 3.894 13.324 13.324 0 0 1 3.905 9.43z" stroke="#2F2E3D" stroke-width="4.984" stroke-linejoin="round"/><path stroke="#2F2E3D" stroke-width="4.984" d="M29.699 191.408h43.12v8.653h-43.12z"/><path d="M10.01 18.558v.984a3.257 3.257 0 0 0 3.249 3.252h99.66a3.257 3.257 0 0 0 3.25-3.252v-.984H10.01z" fill="#000" fill-rule="nonzero" opacity=".1"/><rect stroke="#2F2E3D" stroke-width="4.984" x="10.01" y="14.328" width="106.153" height="8.466" rx="2.934"/><ellipse stroke="#2F2E3D" stroke-width="4.984" fill="#1CBFD7" fill-rule="nonzero" cx="10.01" cy="18.614" rx="9.586" ry="9.593"/><path d="M10.01 9.027A9.581 9.581 0 0 0 .735 16.24 9.544 9.544 0 0 1 9.9 18.73a9.56 9.56 0 0 1 2.487 9.173 9.587 9.587 0 0 0 7.13-10.487 9.583 9.583 0 0 0-9.508-8.388z" fill="#000" fill-rule="nonzero" opacity=".1"/><rect stroke="#2F2E3D" stroke-width="4.984" fill="#DF2D25" fill-rule="nonzero" stroke-linejoin="round" x="39.951" y="7.432" width="22.347" height="22.364" rx="3.115"/><rect stroke="#2F2E3D" stroke-width="4.984" stroke-linejoin="round" x="39.951" y="7.432" width="22.347" height="22.364" rx="3.115"/><path d="M53.957 7.432c0 9.076-1.898 15.356-14 15.356V28.2L55.8 29.79l5.521-1.589V7.787l-7.364-.355z" fill="#050505" fill-rule="nonzero" opacity=".1"/><ellipse stroke="#2F2E3D" stroke-width="4.984" cx="10.01" cy="18.614" rx="9.586" ry="9.593"/><ellipse stroke="#2F2E3D" stroke-width="4.984" fill="#1CBFD7" fill-rule="nonzero" cx="116.163" cy="18.614" rx="9.586" ry="9.593"/><path d="M116.163 9.027a9.581 9.581 0 0 0-9.275 7.213 9.544 9.544 0 0 1 9.166 2.489 9.56 9.56 0 0 1 2.487 9.173 9.587 9.587 0 0 0 7.13-10.487 9.583 9.583 0 0 0-9.508-8.388z" fill="#000" fill-rule="nonzero" opacity=".1"/><ellipse stroke="#2F2E3D" stroke-width="4.984" cx="116.163" cy="18.614" rx="9.586" ry="9.593"/><rect stroke="#2F2E3D" stroke-width="4.984" fill="#1CBFD7" fill-rule="nonzero" x="29.699" y="100.93" width="42.84" height="8.522" rx="3.844"/><path d="M33.957 109.452H68.28a4.272 4.272 0 0 0 4.258-4.26h-42.84a4.272 4.272 0 0 0 4.258 4.26z" fill="#000" fill-rule="nonzero" opacity=".1"/><rect stroke="#2F2E3D" stroke-width="4.984" x="29.699" y="100.93" width="42.84" height="8.522" rx="3.844"/><path d="M35.98 50.397v2.136a3.462 3.462 0 0 0 3.449 3.452h23.399a3.462 3.462 0 0 0 3.449-3.452v-2.136H35.98z" fill="#020202" fill-rule="nonzero" opacity=".1"/><rect stroke="#2F2E3D" stroke-width="4.984" stroke-linejoin="round" x="35.98" y="44.803" width="30.297" height="11.182" rx="3.115"/></g></svg>