<svg width="137" height="214" xmlns="http://www.w3.org/2000/svg"><g fill="none" fill-rule="evenodd"><g opacity=".1" fill="#000" fill-rule="nonzero"><path d="M133.927 208.05h-17.513l.205-17.566c.23-9.576-4.13-16.38-10.669-16.537h-1.3a11.264 11.264 0 0 0 1.997-6.392v-36.207a11.07 11.07 0 0 0 8.007 3.433 11.184 11.184 0 0 0 8.802-4.307 11.267 11.267 0 0 0 2.06-9.607l-9.587-38.705c-4.784-19.352-13.177-26.886-16.63-29.265l-.068-10.244c1.81-1.423 2.968-3.908 3.042-6.936a10.985 10.985 0 0 0-.41-3.327c4-1.217 6.843-5.287 6.974-10.481l.143-6.006c.155-6.43-3.497-11.186-8.71-11.311L50.55 3.343c-5.406-.125-9.562 4.539-9.717 10.862l-.143 6.006c-.131 5.418 2.45 9.645 6.376 10.912a12.162 12.162 0 0 0-.491 3.202c-.075 3.047.846 5.544 2.426 7.042L47.67 66.425l-.187 1.248c-3.602 1.592-10.912 6.13-13.425 17.33-1.686 7.491-2.719 17.891-1.244 25.595-.18.82-.267 1.657-.262 2.497l.137 15.02c.051 6.215 5.084 11.23 11.28 11.236h.105a11.225 11.225 0 0 0 8.274-3.746 11.23 11.23 0 0 0 8.374 3.746h.106a11.246 11.246 0 0 0 8.61-4.139 11.245 11.245 0 0 0 8.71 4.145h.105a11.17 11.17 0 0 0 5.805-1.692v29.878a11.264 11.264 0 0 0 1.94 6.348l-45.993-.187c-5.829-.144-11.82 4.326-12.05 14.676l-.205 19.702H5.26a2.686 2.686 0 0 0-2.681 2.69c0 1.487 1.2 2.691 2.68 2.691h128.668a2.686 2.686 0 0 0 2.681-2.69c0-1.486-1.2-2.691-2.681-2.691v-.031z"/><path d="M24.85 169.97a2.679 2.679 0 0 0 3.438 1.608 2.693 2.693 0 0 0 1.602-3.449l-5.363-14.795a2.676 2.676 0 1 0-4.574-.808 2.698 2.698 0 0 0-.465 2.65l5.362 14.795zM49.486 168.38a2.684 2.684 0 0 0 2.042-.949c.51-.6.732-1.394.609-2.173l-2.688-16.181a2.689 2.689 0 0 0-1.695-2.13 2.674 2.674 0 0 0-2.68.45 2.696 2.696 0 0 0-.913 2.566l2.681 16.138a2.684 2.684 0 0 0 2.644 2.278zM120.016 153.334l-5.363 14.795a2.693 2.693 0 0 0 1.602 3.45 2.679 2.679 0 0 0 3.438-1.608l5.362-14.795a2.698 2.698 0 0 0-.465-2.65 2.676 2.676 0 0 0-4.574.808zM73.612 166.356v-16.81c0-1.487-1.2-2.691-2.681-2.691a2.686 2.686 0 0 0-2.681 2.69v16.811c0 1.486 1.2 2.691 2.68 2.691a2.686 2.686 0 0 0 2.682-2.69z"/></g><path d="M84.12 90.865v73.968c.007 4.762 3.846 8.623 8.591 8.64 4.745-.007 8.593-3.86 8.61-8.621V90.883c-.006-4.761-3.846-8.622-8.591-8.64-4.745.007-8.593 3.86-8.61 8.622z" fill="#FFD300" fill-rule="nonzero"/><path d="M92.674 173.473c4.745-.007 8.593-3.86 8.61-8.621V90.883a8.654 8.654 0 0 0-4.977-7.834c.214.755.323 1.537.324 2.322v73.969c-.017 4.761-3.865 8.614-8.61 8.62a8.48 8.48 0 0 1-3.584-.804 8.634 8.634 0 0 0 8.237 6.317z" fill="#000" fill-rule="nonzero" opacity=".1"/><path d="M84.12 90.865v73.968c.007 4.762 3.846 8.623 8.591 8.64 4.745-.007 8.593-3.86 8.61-8.621V90.883" stroke="#2F2E3D" stroke-width="4.994"/><g transform="translate(2 3)"><path d="M47.132 34.028l-1.587 29.815S35.02 66.577 32.027 79.912c-2.993 13.334-2.8 29.465 3.11 32.299l37.775 15.082 20.362-30.77-1.406-64.255" fill="#FFD300" fill-rule="nonzero"/><path d="M47.132 34.028l-1.587 29.815S35.02 66.577 32.027 79.912c-2.993 13.334-2.8 29.465 3.11 32.299" stroke="#2F2E3D" stroke-width="4.994" fill="#FFD300" fill-rule="nonzero" stroke-linejoin="round"/><path d="M35.119 112.217l4.815 2.61c-3.241-6.393-2.55-21.513-.056-32.612C42.87 68.881 50.734 66.11 50.734 66.11l-3.11-29.683-.486-2.398-1.586 29.815s-10.527 2.734-13.52 16.069c-2.991 13.334-2.792 29.465 3.087 32.305z" opacity=".1" fill="#000" fill-rule="nonzero"/><path d="M91.844 32.274l.112 16.437s10.936 5.125 16.697 28.404l9.587 38.704c1.13 4.565-1.64 9.185-6.19 10.319-4.55 1.134-9.153-1.647-10.284-6.211l-6.22-25.233s-37.87-2.34-25.346-45.19" fill="#FFD300" fill-rule="nonzero"/><path d="M112.056 126.157a8.49 8.49 0 0 0 5.923-5.338c-.193.063-.392.131-.622.181a8.46 8.46 0 0 1-6.433-.98 8.513 8.513 0 0 1-3.851-5.262l-6.221-25.233s-38.28-3.814-30.67-40.034c-12.524 42.85 25.344 45.184 25.344 45.184l6.222 25.233a8.513 8.513 0 0 0 3.858 5.278 8.46 8.46 0 0 0 6.45.97z" fill="#000" fill-rule="nonzero" opacity=".1"/><path d="M48.351 23.26l42.628 1.042c5.238.132 4.977 11.237-.268 11.119l-42.627-1.043c-4.598-.119-4.324-11.23.267-11.118z" stroke="#2F2E3D" stroke-width="4.994" fill="#DF2D25" fill-rule="nonzero"/><path d="M48.351 23.26l42.628 1.042c5.238.132 5.114 5.126-.125 4.995l-42.627-1.043c-4.592-.112-4.467-5.106.124-4.994z" opacity=".07" fill="#000" fill-rule="nonzero"/><path d="M48.42 20.413l42.627 1.043c3.92.093 6.682 3.702 6.557 8.57-.124 4.87-3.048 8.335-6.967 8.241l-42.628-1.042c-3.695-.094-6.221-3.609-6.078-8.559.143-4.95 2.787-8.346 6.489-8.253zm-.137 5.694l.068-2.847-.068 2.847zm42.49 6.467c.56 0 1.127-1.292 1.158-2.684.03-1.393-.467-2.722-1.027-2.74l-42.547-1.043a5.704 5.704 0 0 0-.13 5.424l42.547 1.043z" fill="#2F2E3D" fill-rule="nonzero"/><path d="M44.793 23.173l49.72 1.248c3.919.094 6.843-3.37 6.967-8.24l.143-6.006c.118-4.95-2.376-8.465-6.078-8.558L45.825.368c-3.919-.093-6.843 3.371-6.967 8.24l-.143 6.006c-.106 4.944 2.388 8.484 6.078 8.559z" fill="#1CBFD7" fill-rule="nonzero"/><path d="M101.685 7.99c-15.795-.387-51.953-1.872-52.059 2.585-.105 4.457 8.971 7.84 51.288 8.877 0 1.155-4.884 4.788-4.884 4.788l-52.662-1.292-4.044-4.201.342-14.021 6.172-4.37 51.337 1.248 4.523 5.619-.013.768z" fill="#000" fill-rule="nonzero" opacity=".1"/><path d="M44.793 23.173l49.72 1.248c3.919.094 6.843-3.37 6.967-8.24l.143-6.006c.118-4.95-2.376-8.465-6.078-8.558L45.825.368c-3.919-.093-6.843 3.371-6.967 8.24l-.143 6.006c-.106 4.944 2.388 8.484 6.078 8.559z" stroke="#2F2E3D" stroke-width="4.994"/><path d="M91.844 32.274l.112 16.437s10.936 5.125 16.697 28.404l9.587 38.704c1.13 4.565-1.64 9.185-6.19 10.319-4.55 1.134-9.153-1.647-10.284-6.211l-6.22-25.233s-37.87-2.34-25.346-45.19" stroke="#2F2E3D" stroke-width="4.994" stroke-linejoin="round"/><rect fill="#000" fill-rule="nonzero" opacity=".1" transform="rotate(89.48 37.879 108.766)" x="21.797" y="100.136" width="32.164" height="17.261" rx="8.009"/><rect fill="#FFD300" fill-rule="nonzero" transform="rotate(89.48 39.254 114.808)" x="23.172" y="106.177" width="32.164" height="17.261" rx="8.009"/><path d="M41.869 104.102l.137 15.02c.03 4.761-3.778 8.653-8.524 8.708-.267 0-.528 0-.783-.031a8.58 8.58 0 0 0 6.719 3.165c4.745-.055 8.554-3.947 8.523-8.709l-.137-15.02c-.058-4.45-3.469-8.133-7.889-8.514a8.595 8.595 0 0 1 1.954 5.38z" fill="#000" fill-rule="nonzero" opacity=".1"/><rect stroke="#2F2E3D" stroke-width="4.994" transform="rotate(89.48 39.254 114.808)" x="23.172" y="106.177" width="32.164" height="17.261" rx="8.009"/><rect fill="#FFD300" fill-rule="nonzero" transform="rotate(89.48 56.004 114.807)" x="39.923" y="106.177" width="32.164" height="17.261" rx="8.009"/><path d="M58.622 104.102l.137 15.02c.031 4.761-3.778 8.653-8.523 8.708-.267 0-.529 0-.784-.031a8.58 8.58 0 0 0 6.72 3.165c4.744-.055 8.553-3.947 8.522-8.709l-.137-15.02c-.057-4.45-3.468-8.133-7.888-8.514a8.595 8.595 0 0 1 1.953 5.38z" fill="#000" fill-rule="nonzero" opacity=".1"/><rect stroke="#2F2E3D" stroke-width="4.994" transform="rotate(89.48 56.004 114.807)" x="39.923" y="106.177" width="32.164" height="17.261" rx="8.009"/><rect fill="#FFD300" fill-rule="nonzero" transform="rotate(89.48 73.426 114.812)" x="57.345" y="106.182" width="32.164" height="17.261" rx="8.009"/><path d="M76.048 104.102l.137 15.02c.03 4.761-3.778 8.653-8.523 8.708-.268 0-.53 0-.784-.031a8.58 8.58 0 0 0 6.719 3.165c4.745-.055 8.554-3.947 8.523-8.709l-.137-15.02c-.057-4.45-3.469-8.133-7.889-8.514a8.595 8.595 0 0 1 1.954 5.38z" fill="#000" fill-rule="nonzero" opacity=".1"/><rect stroke="#2F2E3D" stroke-width="4.994" transform="rotate(89.48 73.426 114.812)" x="57.345" y="106.182" width="32.164" height="17.261" rx="8.009"/><path d="M109.076 207.741l.18-23.01c.194-7.997-3.11-13.659-8-13.784l-65.944-.268c-5.201-.125-9.115 4.145-9.332 12.01l-.2 25.052h83.296z" stroke="#2F2E3D" stroke-width="4.994" fill="#3C3" fill-rule="nonzero"/><path d="M57.117 207.741c-13.226-8.115-16.978-17.922-16.878-21.955.174-7.185 48.146-5.056 69.105-4.538v-1.249l-5.966-9.008-68.122-.324-8.225 7.079-.398 29.964 30.484.031z" fill="#000" fill-rule="nonzero" opacity=".1"/><path d="M109.076 207.741l.18-23.01c.194-7.997-3.11-13.659-8-13.784l-65.944-.268c-5.201-.125-9.115 4.145-9.332 12.01l-.2 25.052h83.296z" stroke="#2F2E3D" stroke-width="4.994"/><path d="M.579 207.741h128.666" stroke="#2F2E3D" stroke-width="4.994" fill="#3C3" fill-rule="nonzero" stroke-linecap="round"/><path d="M17.332 148.568l5.357 14.788M42.124 143.86l2.681 16.138M117.854 148.568l-5.362 14.788M66.25 143.86v16.812" stroke="#2F2E3D" stroke-width="4.994" stroke-linecap="round"/></g></g></svg>