<svg width="186" height="243" xmlns="http://www.w3.org/2000/svg"><g fill="none" fill-rule="evenodd"><path d="M183.978 58.413l-34.804-47.392c-3.563-4.857-10.304-5.301-16.028-1.065l-5.686 4.204c-5.187 3.842-7.06 9.45-4.862 13.886-3.202.972-6.448 3.647-7.709 6.549a5.81 5.81 0 0 0 .475 5.959l.212.282C98.468 50.173 88.4 57.191 77.946 64.479a904.6 904.6 0 0 1-6.742 4.675L13.288 105.14a12.074 12.074 0 0 0-5.54 12.196 12.037 12.037 0 0 0 11.907 10.125 11.868 11.868 0 0 0 6.285-1.799l25.403-15.785c-.143 4.337 0 8.447.132 12.107.08 2.343.162 4.562.162 6.567v12.934c0 .332 0 .626.056.977a65.036 65.036 0 0 0-4.993 3.083v-.031c-12.483 8.416-25.454 15.258-28.244 28.086v.112c-.079.376-.154.752-.224 1.128l-.069.376c-.058.322-.112.641-.162.959 0 .182-.056.37-.081.551-.044.282-.081.564-.119.84-.037.276-.056.458-.081.683v.257a22.757 22.757 0 0 1-3.277-2.193c2.859-3.083 4.207-5.978 4.207-10.878 0-5.208-3.477-8.021-6.753-8.021a6.279 6.279 0 0 0-5.094 2.763c-1.248 1.755-1.872 4.13-1.872 7.056a15.237 15.237 0 0 0 2.815 8.867c-.755.664-1.598 1.385-2.534 2.193l-2.447 2.118a2.407 2.407 0 0 0-.126 3.275 2.384 2.384 0 0 0 3.247.347l2.428-2.1c.955-.82 1.835-1.578 2.653-2.299a29.04 29.04 0 0 0 6.497 4.13c.106 14.18 11.435 32.34 23.287 42.56v14.056c0 1.325 1.07 2.4 2.391 2.4h30.46c1.32 0 2.39-1.075 2.39-2.4v-4.067a81.839 81.839 0 0 0 26.876-.094v4.16c0 1.326 1.07 2.4 2.39 2.4h30.46c1.32 0 2.39-1.074 2.39-2.4v-14.569a54.566 54.566 0 0 0 13.207-17.2h10.087c1.32 0 2.39-1.075 2.39-2.4v-34.772c0-1.326-1.07-2.4-2.39-2.4h-9.525a31.043 31.043 0 0 0-.867-1.83c-.138-.282-.288-.558-.431-.834-.144-.275-.325-.626-.493-.933a15.872 15.872 0 0 0-.624-1.047l-.375-.626a33.59 33.59 0 0 0-.749-1.216l-.225-.345a56.03 56.03 0 0 0-8.682-10.352l1.036-15.634a2.404 2.404 0 0 0-.92-2.044 2.383 2.383 0 0 0-2.2-.387v-7.971c0-.382 0-.934-.038-1.648-.55-18.542 2.497-32.547 9.063-41.865a6.363 6.363 0 0 0 4.182 1.466h.58a10.91 10.91 0 0 0 5.55-2.206 11.506 11.506 0 0 0 3.033-3.252 9.66 9.66 0 0 0 6.085 2.425h.475a13.797 13.797 0 0 0 8.114-2.876l5.686-4.205a14.163 14.163 0 0 0 5.374-7.156 8.983 8.983 0 0 0-1.473-8.09zM11.148 172.761a10.408 10.408 0 0 1-1.555-5.52c0-1.85.356-3.36.993-4.256.26-.432.71-.716 1.21-.764.818 0 1.973 1.002 1.973 3.227 0 3.246-.605 5.063-2.621 7.313zm83.306-69.5a24.502 24.502 0 0 0-19.605 9.707c-.013-10.86 8.744-19.675 19.562-19.69 10.817-.013 19.597 8.78 19.61 19.64a24.508 24.508 0 0 0-19.567-9.657z" fill="#000" fill-rule="nonzero" opacity=".1"/><g transform="translate(0 3)"><path d="M155.304 162.442H144.18c-8.57-20.91-32.712-35.975-61.168-35.975-35.62 0-64.494 23.624-64.494 52.762 0 14.413 7.065 27.472 18.512 36.972v21.167h30.46v-6.924a78.962 78.962 0 0 0 31.65-.12v7.057h30.46v-21.663a52.47 52.47 0 0 0 14.068-18.504h11.61l.025-34.772z" stroke="#2F2E3D" stroke-width="5.013" fill="#DF2D25" fill-rule="nonzero" stroke-linejoin="round"/><g opacity=".1" fill="#000" fill-rule="nonzero"><path d="M31.09 210.222l-.924-.79c.303.356.611.707.923 1.054v-.264zM149.33 162.442v28.781h-11.609a52.47 52.47 0 0 1-14.068 18.504v21.67H99.167v5.996h30.459v-21.675a52.47 52.47 0 0 0 14.068-18.504h11.61v-34.772h-5.973zM93.2 229.491c-5.156 1.084-10.555.301-16.122.301-5.356 0-10.555-2.506-15.53-3.496v5.094H37.064v5.997h30.459v-6.943a78.345 78.345 0 0 0 15.529 1.541c3.395.01 6.787-.2 10.155-.626l-.006-1.868z"/></g><rect stroke="#2F2E3D" stroke-width="5.013" fill="#FFD300" fill-rule="nonzero" transform="rotate(-121.75 69.888 71.458)" x="60.257" y="-4.597" width="19.262" height="152.109" rx="9.631"/><path d="M131.767 36.345l-112.462 69.87c-4.525 2.794-10.449 1.394-13.257-3.134a9.61 9.61 0 0 1-.749-1.51 9.727 9.727 0 0 0 .15 9.907c2.808 4.528 8.732 5.928 13.257 3.133l112.461-69.87c3.956-2.478 5.584-7.44 3.87-11.793a9.564 9.564 0 0 1-3.27 3.397z" fill="#000" fill-rule="nonzero" opacity=".1"/><rect stroke="#2F2E3D" stroke-width="5.013" transform="rotate(-121.75 69.888 71.458)" x="60.257" y="-4.597" width="19.262" height="152.109" rx="9.631"/><path d="M128.858 116.823c0-5.113-3.12-43.683 22.314-55.87l-8.832-42.944C98.168 38.92 85.49 49.147 66.53 62.17c-23.013 15.803-18.476 41.983-18.476 57.38v12.84c.13 5.016 4.218 9.014 9.216 9.014 4.998 0 9.086-3.998 9.216-9.014v-28.4c0-12.185 9.839-22.063 21.976-22.063 12.138 0 21.977 9.878 21.977 22.064v21.286c.13 5.016 4.218 9.015 9.216 9.015 4.998 0 9.085-3.999 9.216-9.015 0 0-.013-3.34-.013-8.453z" stroke="#2F2E3D" stroke-width="5.013" fill="#FFD300" fill-rule="nonzero"/><path d="M128.858 116.823c0-5.113-3.12-43.683 22.314-55.87l-8.832-42.944C98.168 38.92 85.49 49.147 66.53 62.17c-23.013 15.803-18.476 41.983-18.476 57.38v12.84c.13 5.016 4.218 9.014 9.216 9.014 4.998 0 9.086-3.998 9.216-9.014v-28.4c0-12.185 9.839-22.063 21.976-22.063 12.138 0 21.977 9.878 21.977 22.064v21.286c.13 5.016 4.218 9.015 9.216 9.015 4.998 0 9.085-3.999 9.216-9.015 0 0-.013-3.34-.013-8.453z" stroke="#2F2E3D" stroke-width="5.013"/><g opacity=".1" fill="#000" fill-rule="nonzero"><path d="M78.906 79.526c-12.137 0-21.976 9.878-21.976 22.064v28.405a9.246 9.246 0 0 1-6.323 8.773 9.18 9.18 0 0 0 10.095 2.211 9.243 9.243 0 0 0 5.784-8.597V103.99a22.108 22.108 0 0 1 6.436-15.602 21.933 21.933 0 0 1 15.54-6.462h.425a21.776 21.776 0 0 0-9.98-2.4zM151.172 60.952L142.34 18.01a729.968 729.968 0 0 0-8.245 3.96l7.52 36.583c-25.421 12.188-22.313 50.758-22.313 55.871v8.453a9.246 9.246 0 0 1-6.323 8.773 9.18 9.18 0 0 0 10.096 2.212 9.243 9.243 0 0 0 5.783-8.597v-8.454c0-5.113-3.108-43.67 22.314-55.858z"/></g><path d="M121.824 22.352l29.847 40.63c3.67 5.014-6.866 12.778-10.517 7.79l-29.847-40.637c-3.215-4.374 7.284-12.163 10.517-7.783z" stroke="#2F2E3D" stroke-width="5.013" fill="#DF2D25" fill-rule="nonzero"/><path d="M121.824 22.352l29.847 40.63c3.67 5.014-1.06 8.492-4.731 3.504l-29.847-40.637c-3.209-4.374 1.498-7.877 4.73-3.497z" opacity=".07" fill="#000" fill-rule="nonzero"/><path d="M119.346 18.968l34.822 47.399c2.746 3.76 8.083 3.972 12.689.557l5.686-4.204c4.681-3.466 6.148-8.353 3.558-11.906L141.285 3.415c-2.746-3.76-8.083-3.973-12.69-.558l-5.685 4.205c-4.694 3.497-6.154 8.384-3.564 11.906z" stroke="#2F2E3D" stroke-width="5.013" fill="#3C3" fill-rule="nonzero"/><path d="M121.25 9.43c11.234 14.94 36.363 49.561 40.57 46.372 4.207-3.19.624-14.075-29.423-54.091 1.086-.821 7.99 1.021 7.99 1.021l37.412 49.799-.906 6.836-13.157 9.964-8.538-2.507-36.476-48.545 1.835-8.303.693-.545z" fill="#000" fill-rule="nonzero" opacity=".1"/><path d="M119.346 18.968l34.822 47.399c2.746 3.76 8.083 3.972 12.689.557l5.686-4.204c4.681-3.466 6.148-8.353 3.558-11.906L141.285 3.415c-2.746-3.76-8.083-3.973-12.69-.558l-5.685 4.205c-4.694 3.497-6.154 8.384-3.564 11.906z" stroke="#2F2E3D" stroke-width="5.013"/><path d="M110.433 118.051c0 11.806-9.83 21.38-21.952 21.38a22.39 22.39 0 0 1-7.303-1.215c-8.677-2.882-14.566-10.989-14.649-20.165 0-11.806 9.83-21.38 21.952-21.38 12.121 0 21.952 9.574 21.952 21.38z" stroke="#2F2E3D" stroke-width="5.013" fill="#FFD300" fill-rule="nonzero" stroke-linejoin="round"/><path d="M110.433 118.051c0 11.806-9.824 21.375-21.952 21.375a22.39 22.39 0 0 1-7.303-1.21 22.034 22.034 0 0 1-10.155-7.206 22.226 22.226 0 0 0 13.813 4.769c12.121 0 21.952-9.575 21.952-21.381a20.92 20.92 0 0 0-4.476-12.934 21.11 21.11 0 0 1 8.12 16.587z" opacity=".1" fill="#000" fill-rule="nonzero"/><path d="M110.433 118.051c0 11.806-9.83 21.38-21.952 21.38a22.39 22.39 0 0 1-7.303-1.215c-8.677-2.882-14.566-10.989-14.649-20.165 0-11.806 9.83-21.38 21.952-21.38 12.121 0 21.952 9.574 21.952 21.38z" stroke="#2F2E3D" stroke-width="5.013" stroke-linejoin="round"/><path d="M95.203 111.992c-.786-2.256-4.993-5.151-8.033-.821-2.54 3.615 1.498 6.003 2.634 7.52 1.136 1.516 2.59 3.991-.174 6.592-2.766 2.6-6.167 2.406-7.983-1.341M84.318 127.614l-.818 1.804M93.562 107.248l-.762 1.686" stroke="#2F2E3D" stroke-width="5.013" stroke-linecap="round" stroke-linejoin="round"/><path d="M41.994 207.478c10.167 8.773 24.804 14.318 41.05 14.318 16.042 0 30.797-5.382 41.09-14.318" stroke="#2F2E3D" stroke-width="5.013" fill="#DF2D25" fill-rule="nonzero" stroke-linecap="round" stroke-linejoin="round"/><path d="M3.02 178.032c8.958-7.795 11.947-9.593 11.947-16.787 0-7.194-8.956-8.397-8.956 1.798 0 10.196 11.347 14.413 12.54 14.99" stroke="#2F2E3D" stroke-width="5.013" stroke-linecap="round" stroke-linejoin="round"/><path d="M44.89 147.453c9.986-7.432 23.393-11.994 38.155-11.994 14.599 0 28.13 4.455 38.198 11.987" stroke="#2F2E3D" stroke-width="5.013" fill="#DF2D25" fill-rule="nonzero" stroke-linecap="round" stroke-linejoin="round"/><path fill="#DF2D25" fill-rule="nonzero" d="M61.149 145.053h36.826v13.191H61.149z"/><path stroke="#2F2E3D" stroke-width="5.013" fill="#DF2D25" fill-rule="nonzero" stroke-linecap="round" stroke-linejoin="round" d="M96.183 151.651l35.833-24.583-2.39 35.975"/><path fill="#000" fill-rule="nonzero" opacity=".1" d="M125.756 131.36l3.87 31.683 2.39-35.975z"/><path d="M146.447 172.136v11.987" stroke="#2F2E3D" stroke-width="5.013" fill="#DF2D25" fill-rule="nonzero" stroke-linecap="round" stroke-linejoin="round"/><path d="M42.019 138.486c-14.356 9.675-23.469 24.32-23.469 40.73 0 14.413 7.066 27.472 18.513 36.972v21.168h30.459v-6.912a78.962 78.962 0 0 0 31.651-.12v7.057h30.459v-21.663a52.47 52.47 0 0 0 14.069-18.504h11.609v-34.772h-11.129a49.785 49.785 0 0 0-8.482-13.66" stroke="#2F2E3D" stroke-width="5.013" stroke-linejoin="round"/><path stroke="#2F2E3D" stroke-width="5.013" stroke-linecap="round" stroke-linejoin="round" d="M96.183 151.651l35.833-24.583-2.39 35.975"/></g></g></svg>