<svg width="96" height="235" xmlns="http://www.w3.org/2000/svg"><g fill="none" fill-rule="evenodd"><path d="M94.458 191.256c1.292-10.874 1.442-18.324 1.192-23.3l.088-1.065c.2-4.551-.233-9.109-1.286-13.54a2.285 2.285 0 0 0-.056-.82c-1.523-5.591-3.92-12.521-7.552-22.944l-1.642-4.733c-3.383-9.76-1.804-26.919-.624-39.439.324-3.518.624-6.586.749-9.121a9.921 9.921 0 0 0 2.859-8.188c-.032-3.612-1.143-6.51-3.302-8.602-4.713-4.563-13.108-4.27-21.172-3.987-1.872.062-3.595.125-5.255.125-6.38 0-9.107-5.359-10.205-8.846a28.42 28.42 0 0 0 2.777-20.314C47.821 12.296 35.207 3.032 22.904 5.823 16.881 7.194 11.851 11.201 8.75 17.092a28.46 28.46 0 0 0-2.335 19.525C8.911 47.654 17.1 55.711 26.387 57.426c.506 3.349-1.06 8.764-10.61 17.121-9.444 8.239-8.814 22.23-8.115 27.864.625 5.14 2.279 10.793 4.732 14.58.372.823.893 1.57 1.535 2.204.206.205.45.369.718.482a7.57 7.57 0 0 0 1.591 1.09c7.884 3.956 12.521.757 18.139-5.76 1.154 3.543 1.248 8.526-3.184 18.236-6.947 15.206-8.913 32.077-9.918 46.582l-.98.47c-3.925 1.84-6.01 3.98-6.36 6.54-.474 3.488 2.34 6.261 5.262 8.765l.28.226c1.767 6.153 4.925 20.59 7.534 36.258A2.286 2.286 0 0 0 29.265 234h64.482l.193-.044.125-.037.175-.07.112-.05.181-.106.063-.037c.111-.076.215-.162.312-.257l.062-.063a2.29 2.29 0 0 0 .225-.281v-.038c.067-.105.126-.216.175-.332l.03-.081c.094-.244.144-.502.15-.764v-.094a2.298 2.298 0 0 0-.037-.382v-.056a2.296 2.296 0 0 0-.1-.332l-.03-.087v-.057c-4.994-10.961-4.002-14.398-1.655-33.686.256-1.909.487-3.837.73-5.89z" fill="#000" fill-rule="nonzero" opacity=".1"/><path d="M78.461 71.117c-.574 11.468-4.575 36.703 0 49.9 4.575 13.196 7.434 21.222 9.15 27.544-8.008 10.9-13.731 16.058-13.731 16.058L32.685 179.53l-13.731-4.012c1.142-16.634 3.432-32.121 9.718-45.881 6.285-13.76 4-18.925 1.716-23.513-7.415 9.152-10.823 11.437-17.682 8.006-6.86-3.43-13.151-30.969 0-42.443 13.15-11.475 13.15-18.925 9.15-24.09l.574-12.044 18.3 4.013s1.717 13.772 13.152 13.772c11.434 0 27.463-2.867 27.463 10.323 0 0 .905 6.21-5.15 8.032-5.717 1.721-9.718 2.867-12.008-1.722-2.291-4.588-.575-11.468 15.441-10.899" stroke="#2F2E3D" stroke-width="5.008" fill="#1CBFD7" fill-rule="nonzero" stroke-linecap="round" stroke-linejoin="round"/><g opacity=".1" fill="#000" fill-rule="nonzero"><path d="M29.283 39.572S36.15 57.35 55.586 55.629c2.808-.25-7.24-2.466-4.17-2.504-9.225-1.797-10.698-13.528-10.698-13.528l-18.294-4.044-.119 2.504 6.978 1.515zM69.698 61.401c.306 0 .624-.038.93-.038 3.12.032 6.241-2.172 9.362-.563.432.223.834.498 1.199.82-1.405-9.509-13.02-8.72-23.144-8.376 5.892.526 10.68 2.41 11.653 8.157zM78.461 121.017c-4.575-13.19-.574-38.425 0-49.9l.05-.551a6.475 6.475 0 0 0 2.166-2.66c-.493.35-1.012.66-1.554.926-3.658 1.847-7.777 3.881-11.96 3.725h-.224c-.33 5.008-.337 15.25 1.248 20.959.593 2.166 1.954.626 2.285 3.443-2.285 5.734-.15 18.154 1.716 23.513 4.575 13.19 2.285 21.792 4.001 28.102-8.008 10.899-13.731 16.057-13.731 16.057l-36.07 13.028 6.328 1.878 41.195-14.912s5.717-5.165 13.731-16.057c-1.747-6.336-4.606-14.361-9.18-27.551z"/></g><path d="M51.585 99.219c6.865 2.29 14.293 0 16.584-3.443" stroke="#2F2E3D" stroke-width="5.008" fill="#1CBFD7" fill-rule="nonzero" stroke-linecap="round" stroke-linejoin="round"/><path d="M18.991 84.883c-1.142 6.31-2.497 12.846 1.323 16.17 3.82-.689 3.82-2.404 3.82-2.404l-4-14.336-1.143.57z" fill="#000" fill-rule="nonzero" opacity=".1"/><path d="M24.708 231.709c-3.433-20.659-6.865-41.317-8.576-43.59-1.71-2.272 13.732-5.164 13.732-5.164l51.78-26.738 5.992-.788s2.859 6.886 0 30.969c-2.858 24.083-4.575 32.69 1.142 45.31h-64.07z" stroke="#2F2E3D" stroke-width="5.008" fill="#DF2D25" fill-rule="nonzero" stroke-linejoin="round"/><path d="M41.935 231.709c-1.785-11.469-4.644-26.956-1.785-32.121-4.575 7.456-5.15 27.545-3.433 31.545a9.337 9.337 0 0 0 5.218.576z" fill="#000" fill-rule="nonzero" opacity=".1"/><path d="M39.582 199.012c-5.717 8.601-4 19.5-3.62 32.69" stroke="#2F2E3D" stroke-width="5.008" stroke-linecap="round"/><path d="M20.308 205.904c2.69-6.886 3.277-15.23 10.698-17.653-11.447 2.735-13.731 2.923-13.731 2.923l3.033 14.73zM77.319 203.6c1.716 5.735 5.717 14.912 5.717 14.912s2.846-16.633 3.708-24.946c.861-8.314 2.577-30.112 2.01-31.257-.568-1.146-9.238 2.028-9.238 2.028s2.946 25.504 1.804 31.808c-2.285-2.291-5.368-4.263-6.117-5.86-.749-1.596 2.116 13.316 2.116 13.316z" fill="#000" fill-rule="nonzero" opacity=".1"/><path d="M75.034 188.689c1.143 11.469 5.718 30.969 13.732 43.014" stroke="#2F2E3D" stroke-width="5.008" stroke-linecap="round"/><path d="M24.708 231.709c-3.433-20.659-6.865-41.317-8.576-43.59-1.71-2.272 13.732-5.164 13.732-5.164l51.78-26.738 5.992-.788s2.859 6.886 0 30.969c-2.858 24.083-4.575 32.69 1.142 45.31h-64.07z" stroke="#2F2E3D" stroke-width="5.008" stroke-linejoin="round"/><path d="M29.283 98.649c-13.731 4.013-25.952 11.118-16.122 16.17 9.83 5.052 18.407-8.138 17.839-9.284-.568-1.145-1.717-6.886-1.717-6.886zM78.461 58.496C64.73 62.51 57.084 66.747 66.914 71.8c9.83 5.052 14.98-6.416 14.406-7.562l-2.859-5.74z" fill="#000" fill-rule="nonzero" opacity=".2"/><path d="M78.461 71.117c-.574 11.468-4.575 36.703 0 49.9 4.575 13.196 7.434 21.222 9.15 27.544-8.008 10.9-13.731 16.058-13.731 16.058L32.685 179.53l-13.731-4.012c1.142-16.634 3.432-32.121 9.718-45.881 6.285-13.76 4-18.925 1.716-23.513-7.415 9.152-10.823 11.437-17.682 8.006-6.86-3.43-13.151-30.969 0-42.443 13.15-11.475 13.15-18.925 9.15-24.09l.574-12.044 18.3 4.013s1.717 13.772 13.152 13.772c11.434 0 27.463-2.867 27.463 10.323 0 0 .905 6.21-5.15 8.032-5.717 1.721-9.718 2.867-12.008-1.722-2.291-4.588-.575-11.468 15.441-10.899M10.99 112.985c-5.5-5.515 6.24-12.84 14.854-12.727" stroke="#2F2E3D" stroke-width="5.008" stroke-linecap="round" stroke-linejoin="round"/><path d="M39.582 102.662c-13.731 5.164-18.3-7.456-18.868-17.78" stroke="#2F2E3D" stroke-width="5.008" fill="#1CBFD7" fill-rule="nonzero" stroke-linecap="round" stroke-linejoin="round"/><path d="M38.434 185.252c-15.46 6.304-18.295 7.43-22.327 4.013-4.032-3.418-8.008-7.456.575-11.469 8.582-4.013 45.176-24.089 70.904-28.678a47.192 47.192 0 0 1 1.249 13.003s-12.134.764-30.434 12.808" stroke="#2F2E3D" stroke-width="5.008" fill="#DF2D25" fill-rule="nonzero" stroke-linecap="round"/><path d="M77.319 151.992a67.164 67.164 0 0 1 2.197 12.351l9.237-2.028-1.142-13.19-10.292 2.867z" fill="#000" fill-rule="nonzero" opacity=".1"/><path d="M38.434 185.252c-15.46 6.304-18.295 7.43-22.327 4.013-4.032-3.418-8.008-7.456.575-11.469 8.582-4.013 45.176-24.089 70.904-28.678a47.192 47.192 0 0 1 1.249 13.003s-12.134.764-30.434 12.808" stroke="#2F2E3D" stroke-width="5.008" stroke-linecap="round"/><g fill-rule="nonzero"><path d="M29.452 50.446C18.367 52.95 6.982 44.492 4.062 31.52 1.14 18.551 7.736 5.986 18.828 3.463 29.92.94 41.299 9.417 44.219 22.388c1.873 8.182-.093 16.201-4.568 21.641" stroke="#2F2E3D" stroke-width="5.008" fill="#1CBFD7" stroke-linecap="round" stroke-linejoin="round"/><path d="M44.725 76.275c-2.284 9.747-1.142 15.488 2.859 18.355-5.717-2.291-6.292-6.31-6.292-10.899a10.486 10.486 0 0 1 3.433-7.456z" fill="#000" opacity=".1"/></g></g></svg>