<svg width="191" height="214" xmlns="http://www.w3.org/2000/svg"><g transform="translate(-9 2)" fill="none" fill-rule="evenodd"><path d="M136.025 162.011l-20.932-20.883a3.425 3.425 0 0 0 2.084-2.707c.024-.226.104-.442.233-.629a.871.871 0 0 1 .403 0c.145.02.287.057.422.113.039.233.039.471 0 .704-.17 1.005-.422 2.513.554 3.77.976 1.256 2.33 1.394 3.476 1.583 2.52.414 7.708 1.256 11.474-.924 3.313-1.935 2.979-4.165 2.683-5.026-.63-1.797-2.639-2.79-5.038-2.513h-.233a3.71 3.71 0 0 1 .057-.678c.226-1.364 2.519-13.25 12.236-11.635 2.48.414 4.408.716 6.026.96 5.712.887 6.594 1.025 11.147 2.954 1.26.521 2.349 1.087 3.432 1.627 4.295 2.161 8.35 4.209 18.395 3.587 2.72-.17 4.799-.232 6.297-.283 4.824-.157 6.827-.22 7.513-4.61l1.675-10.053c0-.107.07-.295.126-.477a4.388 4.388 0 0 0-.239-3.77c-.989-1.564-2.916-1.884-3.545-1.985-2.796-.465-12.343-3.38-15.228-4.894-3.199-1.69-58.34-6.188-58.894-6.232-15.68-1.257-27.23-2.073-35.757-2.55l-3.3-10.053 18.685 9.424a2.398 2.398 0 0 0 2.64-.317 2.384 2.384 0 0 0 .717-2.554l-4.081-12.433 18.962 9.58a2.398 2.398 0 0 0 2.64-.316 2.384 2.384 0 0 0 .716-2.554l-4.15-12.647 17.992 9.09a2.398 2.398 0 0 0 2.644-.317 2.384 2.384 0 0 0 .712-2.56l-3.91-11.936 18.615 9.423a2.398 2.398 0 0 0 2.644-.317 2.384 2.384 0 0 0 .713-2.56l-4.113-12.332 18.37 9.285c.86.435 1.898.313 2.632-.31a2.384 2.384 0 0 0 .73-2.542l-3.903-12.32 7.116 3.594a2.397 2.397 0 0 0 3.218-1.05 2.385 2.385 0 0 0-1.052-3.21l-12.198-6.163a2.398 2.398 0 0 0-2.632.31 2.384 2.384 0 0 0-.731 2.542l3.904 12.32-18.445-9.323a2.398 2.398 0 0 0-2.644.317 2.384 2.384 0 0 0-.712 2.56l4.068 12.383-18.616-9.424a2.398 2.398 0 0 0-2.644.318 2.384 2.384 0 0 0-.712 2.56l3.91 11.936-17.991-9.09a2.398 2.398 0 0 0-2.617.32 2.384 2.384 0 0 0-.734 2.526l4.15 12.646-18.961-9.58a2.398 2.398 0 0 0-2.64.316 2.384 2.384 0 0 0-.717 2.554l4.081 12.433-18.685-9.423a2.398 2.398 0 0 0-2.64.317 2.384 2.384 0 0 0-.716 2.554l3.778 11.585-4.842-2.777a2.398 2.398 0 0 0-1.94-.201l-4.408 1.438-2.343-2.337 35.512-35.426 6.864-6.848c5.151-5.14 9.59-12.119 13.155-18.942 6.184-10.68 8.678-19.06 9.503-22.39.214-.628.34-1.037.378-1.156a2.466 2.466 0 0 0-1.062-2.837 2.48 2.48 0 0 0-3.019.324l-24.8 24.74c-3.608 3.6-7.103 5.466-10.075 5.39a6.343 6.343 0 0 1-4.327-1.777 2.395 2.395 0 0 0-3.514-.139L37.722 77.82a30.211 30.211 0 0 0-20.102 8.796c-11.814 11.786-9.484 27.366 2.33 39.152l75.532 75.351c11.814 11.786 28.704 15.373 40.512 3.587 11.79-11.796 11.804-30.881.031-42.695zM72.257 96.963h-.132.132z" fill="#000" fill-rule="nonzero" opacity=".1"/><path d="M64.958 124.392c41.4 4.303 45.418 8.795 46.746 9.047 1.33.25 3.647 1.256 3.943-.478.296-1.734 1.398-2.94 3.388-2.607 1.99.333 2.689 1.577 2.355 3.562-.334 1.985-.145 2.243 2.066 2.607 2.21.365 6.851 1.137 9.874-.628 3.023-1.765 1.474-3.38-.85-3.085-2.324.296-3.243-.992-2.84-3.417s3.495-15.512 14.988-13.602c11.493 1.91 11.568 1.47 17.72 4.078 6.153 2.607 8.817 5.767 20.738 5.026 11.921-.742 11.052.477 11.714-3.494l1.58-9.48c.22-1.325 1.398-2.94-1.694-3.455-3.092-.515-12.821-3.487-15.951-5.139-3.13-1.652-112.46-11.346-116.988-8.701-4.528 2.645-14.214 21.21-14.214 21.21l17.425 8.556z" stroke="#2F2E3D" stroke-width="5.026" fill="#1CBFD7" fill-rule="nonzero" stroke-linejoin="round"/><g opacity=".1" fill="#000" fill-rule="nonzero"><path d="M115.716 132.61c-.46-.346-.447-.918-.252-2.074.334-1.985-.371-3.235-2.355-3.562-1.984-.327-3.092.848-3.388 2.607-.296 1.76-2.614.698-3.942.478-1.33-.22-5.34-4.737-46.747-9.047l-11.303-5.554-.196.371 17.425 8.563c41.4 4.303 45.418 8.795 46.746 9.047 1.33.25 3.647 1.256 3.943-.478.019-.12.037-.239.069-.352zM194.8 121.408l1.58-9.48c.22-1.326 1.398-2.94-1.694-3.456-.881-.144-2.31-.496-3.967-.955-.095.346-.208.698-.265 1.03l-1.58 9.48c-.662 3.971.22 2.759-11.714 3.494-11.933.735-14.585-2.425-20.737-5.026-6.153-2.601-6.228-2.168-17.721-4.077-11.493-1.91-14.585 11.176-14.988 13.601-.403 2.425.516 3.713 2.84 3.418 2.324-.296 3.867 1.319.85 3.084-1.713 1-3.948 1.188-5.97 1.094 0 .1 0 .2-.044.307-.334 1.986-.145 2.243 2.066 2.608 2.21.364 6.851 1.137 9.874-.629 3.023-1.765 1.474-3.38-.85-3.084-2.324.295-3.243-.993-2.84-3.418.403-2.425 3.495-15.511 14.988-13.601 11.493 1.91 11.568 1.47 17.72 4.077 6.153 2.607 8.817 5.767 20.738 5.026 11.921-.742 11.052.471 11.714-3.493z"/></g><path d="M176.783 107.561c-5.926 1.125-15.02 2.099-23.024 1-8.004-1.1-16.014-3.337-19.012-5.51 16.052 4.152 24.05 4.674 42.036 4.51z" fill="#000" fill-rule="nonzero" opacity=".1"/><path d="M64.958 124.392c41.4 4.303 45.418 8.795 46.746 9.047 1.33.25 3.647 1.256 3.943-.478.296-1.734 1.398-2.94 3.388-2.607 1.99.333 2.689 1.577 2.355 3.562-.334 1.985-.145 2.243 2.066 2.607 2.21.365 6.851 1.137 9.874-.628 3.023-1.765 1.474-3.38-.85-3.085-2.324.296-3.243-.992-2.84-3.417s3.495-15.512 14.988-13.602c11.493 1.91 11.568 1.47 17.72 4.078 6.153 2.607 8.817 5.767 20.738 5.026 11.921-.742 11.052.477 11.714-3.494l1.58-9.48c.22-1.325 1.398-2.94-1.694-3.455-3.092-.515-12.821-3.487-15.951-5.139-3.13-1.652-112.46-11.346-116.988-8.701-4.528 2.645-14.214 21.21-14.214 21.21l17.425 8.556z" stroke="#2F2E3D" stroke-width="5.026" stroke-linejoin="round"/><path stroke="#2F2E3D" stroke-width="5.026" stroke-linecap="round" stroke-linejoin="round" d="M39.076 100.456L73.32 89.26l10.253 5.874-5.75-17.497 23.842 12.05-5.882-17.918 24.12 12.188-5.951-18.125 23.143 11.698-5.712-17.396 23.773 12.012-5.863-17.86 23.527 11.886-5.623-17.742 12.198 6.163"/><path d="M39.9 74.842L86.125 28.73s6.663 7.77 17.935-3.475l24.8-24.74S124.45 24.238 99.65 48.978L62.446 86.069" stroke="#2F2E3D" stroke-width="5.026" fill="#1CBFD7" fill-rule="nonzero" stroke-linejoin="round"/><path d="M56.243 79.906c15.781-15.744 64.234-60.732 72.71-79.284 0 0-8.76 27.856-22.444 41.508L62.345 86.182" stroke="#2F2E3D" stroke-width="5.026" stroke-linejoin="round"/><path d="M56.243 79.906c15.781-15.744 64.234-60.732 72.71-79.284 0 0-8.76 27.856-22.444 41.508L62.345 86.182" fill="#000" fill-rule="nonzero" opacity=".1"/><path d="M56.243 79.906c15.781-15.744 64.234-60.732 72.71-79.284 0 0-8.76 27.856-22.444 41.508L62.345 86.182" stroke="#2F2E3D" stroke-width="5.026" stroke-linejoin="round"/><rect stroke="#2F2E3D" stroke-width="5.026" fill="#DF2D25" fill-rule="nonzero" transform="rotate(45 77.667 140.632)" x="-3.643" y="112.798" width="162.62" height="55.669" rx="26.901"/><rect stroke="#2F2E3D" stroke-width="5.026" fill="#FFD300" fill-rule="nonzero" transform="rotate(45 77.944 140.914)" x="8.193" y="124.216" width="139.502" height="33.397" rx="16.14"/><path d="M127.266 166.484l-74.997-74.76a16.753 16.753 0 0 0-16.071-4.348 16.666 16.666 0 0 1 7.607 4.347l74.94 74.761a16.678 16.678 0 0 1 4.903 11.808c0 4.429-1.764 8.676-4.903 11.808a16.666 16.666 0 0 1-7.607 4.347 16.753 16.753 0 0 0 16.07-4.347 16.679 16.679 0 0 0 4.932-11.796 16.678 16.678 0 0 0-4.874-11.82z" fill="#000" fill-rule="nonzero" opacity=".1"/><ellipse stroke="#2F2E3D" stroke-width="5.026" fill="#1CBFD7" fill-rule="nonzero" stroke-linejoin="round" transform="rotate(-45 115.99 178.873)" cx="115.991" cy="178.873" rx="6.379" ry="6.364"/><path d="M121.403 175.28a5.116 5.116 0 0 0-7.003-.201c.075.069.15.125.22.2a5.089 5.089 0 0 1 0 7.206c-.07.07-.145.132-.22.202a5.116 5.116 0 0 0 7.066-.35 5.086 5.086 0 0 0-.063-7.057z" fill="#000" fill-rule="nonzero" opacity=".1"/><ellipse stroke="#2F2E3D" stroke-width="5.026" fill="#1CBFD7" fill-rule="nonzero" stroke-linejoin="round" transform="rotate(-45 40.458 103.522)" cx="40.458" cy="103.522" rx="6.379" ry="6.364"/><path d="M135.156 158.631L59.624 83.28a27.946 27.946 0 0 0-23.93-7.797 27.733 27.733 0 0 1 15.498 7.797l75.5 75.351c10.85 10.887 10.85 28.472 0 39.36a27.733 27.733 0 0 1-15.498 7.796 27.946 27.946 0 0 0 23.93-7.797c10.86-10.878 10.873-28.463.032-39.359z" fill="#000" fill-rule="nonzero" opacity=".1"/><rect stroke="#2F2E3D" stroke-width="5.026" transform="rotate(45 77.667 140.632)" x="-3.643" y="112.798" width="162.62" height="55.669" rx="26.901"/><rect stroke="#2F2E3D" stroke-width="5.026" transform="rotate(45 77.944 140.914)" x="8.193" y="124.216" width="139.502" height="33.397" rx="16.14"/><ellipse stroke="#2F2E3D" stroke-width="5.026" stroke-linejoin="round" transform="rotate(-45 115.99 178.873)" cx="115.991" cy="178.873" rx="6.379" ry="6.364"/><path d="M46.06 100.11a5.116 5.116 0 0 0-7.016-.22c.076.07.151.126.22.202a5.089 5.089 0 0 1 0 7.205c-.069.07-.144.132-.22.202a5.116 5.116 0 0 0 7.067-.35 5.086 5.086 0 0 0-.064-7.057l.013.018z" fill="#000" fill-rule="nonzero" opacity=".1"/><ellipse stroke="#2F2E3D" stroke-width="5.026" stroke-linejoin="round" transform="rotate(-45 40.65 103.71)" cx="40.65" cy="103.71" rx="6.379" ry="6.364"/></g></svg>